mtllib ./plane.mtl

vn 0.000000 0.000000 1.000000
v 2.000000 -1.000000 -1.000000
vn 0.000000 0.000000 1.000000
v 3.000000 -1.000000 -1.000000
vn 0.000000 0.000000 1.000000
v 4.000000 -1.000000 -1.000000
vn 0.000000 0.000000 1.000000
v 5.000000 -1.000000 -1.000000
vn 0.000000 0.000000 1.000000
v 6.000000 -1.000000 -1.000000
vn 0.000000 0.000000 1.000000
v 7.000000 -1.000000 -1.000000
vn 0.000000 0.000000 1.000000
v 1.000000 -2.000000 -1.000000
vn 0.000000 0.000000 1.000000
v 2.000000 -2.000000 -1.000000
vn 0.000000 0.000000 1.000000
v 3.000000 -2.000000 -1.000000
vn 0.000000 0.000000 1.000000
v 4.000000 -2.000000 -1.000000
vn 0.000000 0.000000 1.000000
v 5.000000 -2.000000 -1.000000
vn 0.000000 0.000000 1.000000
v 6.000000 -2.000000 -1.000000
vn 0.000000 0.000000 1.000000
v 7.000000 -2.000000 -1.000000
vn 0.000000 0.000000 1.000000
v 1.000000 -3.000000 -1.000000
vn 0.000000 0.000000 1.000000
v 2.000000 -3.000000 -1.000000
vn 0.000000 0.000000 1.000000
v 3.000000 -3.000000 -1.000000
vn 0.000000 0.000000 1.000000
v 4.000000 -3.000000 -1.000000
vn 0.000000 0.000000 1.000000
v 5.000000 -3.000000 -1.000000
vn 0.000000 0.000000 1.000000
v 6.000000 -3.000000 -1.000000
vn 0.000000 0.000000 1.000000
v 7.000000 -3.000000 -1.000000
vn 0.000000 0.000000 1.000000
v 1.000000 -4.000000 -1.000000
vn 0.000000 0.000000 1.000000
v 2.000000 -4.000000 -1.000000
vn 0.000000 0.000000 1.000000
v 3.000000 -4.000000 -1.000000
vn 0.000000 0.000000 1.000000
v 4.000000 -4.000000 -1.000000
vn 0.000000 0.000000 1.000000
v 5.000000 -4.000000 -1.000000
vn 0.000000 0.000000 1.000000
v 6.000000 -4.000000 -1.000000
vn 0.000000 0.000000 1.000000
v 7.000000 -4.000000 -1.000000
vn 0.000000 0.000000 1.000000
v 1.000000 -5.000000 -1.000000
vn 0.000000 0.000000 1.000000
v 2.000000 -5.000000 -1.000000
vn 0.000000 0.000000 1.000000
v 3.000000 -5.000000 -1.000000
vn 0.000000 0.000000 1.000000
v 4.000000 -5.000000 -1.000000
vn 0.000000 0.000000 1.000000
v 5.000000 -5.000000 -1.000000
vn 0.000000 0.000000 1.000000
v 6.000000 -5.000000 -1.000000
vn 0.000000 0.000000 1.000000
v 7.000000 -5.000000 -1.000000
vn 0.000000 0.000000 1.000000
v 1.000000 -6.000000 -1.000000
vn 0.000000 0.000000 1.000000
v 2.000000 -6.000000 -1.000000
vn 0.000000 0.000000 1.000000
v 3.000000 -6.000000 -1.000000
vn 0.000000 0.000000 1.000000
v 4.000000 -6.000000 -1.000000
vn 0.000000 0.000000 1.000000
v 5.000000 -6.000000 -1.000000
vn 0.000000 0.000000 1.000000
v 6.000000 -6.000000 -1.000000
vn 0.000000 0.000000 1.000000
v 7.000000 -6.000000 -1.000000
vn 0.000000 0.000000 1.000000
v 1.000000 -7.000000 -1.000000
vn 0.000000 0.000000 1.000000
v 2.000000 -7.000000 -1.000000
vn 0.000000 0.000000 1.000000
v 3.000000 -7.000000 -1.000000
vn 0.000000 0.000000 1.000000
v 4.000000 -7.000000 -1.000000
vn 0.000000 0.000000 1.000000
v 5.000000 -7.000000 -1.000000
vn 0.000000 0.000000 1.000000
v 6.000000 -7.000000 -1.000000
vn 0.000000 0.000000 1.000000
v 7.000000 -7.000000 -1.000000
# 48 vertices, 0 vertices normals


usemtl mat0001
vt 0.312500 0.812500
vt 0.437500 0.687500
vt 0.437500 0.812500
f 1/1/1 9/2/9 2/3/2
vt 0.312500 0.687500
f 1/1/1 8/4/8 9/2/9
vt 0.562500 0.687500
vt 0.562500 0.812500
f 2/3/2 10/5/10 3/6/3
f 2/3/2 9/2/9 10/5/10
vt 0.687500 0.687500
vt 0.687500 0.812500
f 3/6/3 11/7/11 4/8/4
f 3/6/3 10/5/10 11/7/11
vt 0.812500 0.687500
vt 0.812500 0.812500
f 4/8/4 12/9/12 5/10/5
f 4/8/4 11/7/11 12/9/12
vt 0.937500 0.687500
vt 0.937500 0.812500
f 5/10/5 13/11/13 6/12/6
f 5/10/5 12/9/12 13/11/13
vt 0.187500 0.687500
vt 0.312500 0.562500
f 7/13/7 15/14/15 8/4/8
vt 0.187500 0.562500
f 7/13/7 14/15/14 15/14/15
vt 0.437500 0.562500
f 8/4/8 16/16/16 9/2/9
f 8/4/8 15/14/15 16/16/16
vt 0.562500 0.562500
f 9/2/9 17/17/17 10/5/10
f 9/2/9 16/16/16 17/17/17
vt 0.687500 0.562500
f 10/5/10 18/18/18 11/7/11
f 10/5/10 17/17/17 18/18/18
vt 0.812500 0.562500
f 11/7/11 19/19/19 12/9/12
f 11/7/11 18/18/18 19/19/19
vt 0.937500 0.562500
f 12/9/12 20/20/20 13/11/13
f 12/9/12 19/19/19 20/20/20
vt 0.312500 0.437500
f 14/15/14 22/21/22 15/14/15
vt 0.187500 0.437500
f 14/15/14 21/22/21 22/21/22
vt 0.437500 0.437500
f 15/14/15 23/23/23 16/16/16
f 15/14/15 22/21/22 23/23/23
vt 0.562500 0.437500
f 16/16/16 24/24/24 17/17/17
f 16/16/16 23/23/23 24/24/24
vt 0.687500 0.437500
f 17/17/17 25/25/25 18/18/18
f 17/17/17 24/24/24 25/25/25
vt 0.812500 0.437500
f 18/18/18 26/26/26 19/19/19
f 18/18/18 25/25/25 26/26/26
vt 0.937500 0.437500
f 19/19/19 27/27/27 20/20/20
f 19/19/19 26/26/26 27/27/27
vt 0.312500 0.312500
f 21/22/21 29/28/29 22/21/22
vt 0.187500 0.312500
f 21/22/21 28/29/28 29/28/29
vt 0.437500 0.312500
f 22/21/22 30/30/30 23/23/23
f 22/21/22 29/28/29 30/30/30
vt 0.562500 0.312500
f 23/23/23 31/31/31 24/24/24
f 23/23/23 30/30/30 31/31/31
vt 0.687500 0.312500
f 24/24/24 32/32/32 25/25/25
f 24/24/24 31/31/31 32/32/32
vt 0.812500 0.312500
f 25/25/25 33/33/33 26/26/26
f 25/25/25 32/32/32 33/33/33
vt 0.937500 0.312500
f 26/26/26 34/34/34 27/27/27
f 26/26/26 33/33/33 34/34/34
vt 0.312500 0.187500
f 28/29/28 36/35/36 29/28/29
vt 0.187500 0.187500
f 28/29/28 35/36/35 36/35/36
vt 0.437500 0.187500
f 29/28/29 37/37/37 30/30/30
f 29/28/29 36/35/36 37/37/37
vt 0.562500 0.187500
f 30/30/30 38/38/38 31/31/31
f 30/30/30 37/37/37 38/38/38
vt 0.687500 0.187500
f 31/31/31 39/39/39 32/32/32
f 31/31/31 38/38/38 39/39/39
vt 0.812500 0.187500
f 32/32/32 40/40/40 33/33/33
f 32/32/32 39/39/39 40/40/40
vt 0.937500 0.187500
f 33/33/33 41/41/41 34/34/34
f 33/33/33 40/40/40 41/41/41
vt 0.312500 0.062500
f 35/36/35 43/42/43 36/35/36
vt 0.187500 0.062500
f 35/36/35 42/43/42 43/42/43
vt 0.437500 0.062500
f 36/35/36 44/44/44 37/37/37
f 36/35/36 43/42/43 44/44/44
vt 0.562500 0.062500
f 37/37/37 45/45/45 38/38/38
f 37/37/37 44/44/44 45/45/45
vt 0.687500 0.062500
f 38/38/38 46/46/46 39/39/39
f 38/38/38 45/45/45 46/46/46
vt 0.812500 0.062500
f 39/39/39 47/47/47 40/40/40
f 39/39/39 46/46/46 47/47/47
vt 0.937500 0.062500
f 40/40/40 48/48/48 41/41/41
f 40/40/40 47/47/47 48/48/48
# 70 faces, 48 coords texture

# End of File
