# Blender 3.3.7
# www.blender.org
mtllib cylinder.mtl
o Cylinder
v 0.000000 -1.000000 -1.000000
v 0.000000 1.000000 -1.000000
v 0.173648 -1.000000 -0.984808
v 0.173648 1.000000 -0.984808
v 0.342020 -1.000000 -0.939693
v 0.342020 1.000000 -0.939693
v 0.500000 -1.000000 -0.866025
v 0.500000 1.000000 -0.866025
v 0.642788 -1.000000 -0.766044
v 0.642788 1.000000 -0.766044
v 0.766044 -1.000000 -0.642788
v 0.766044 1.000000 -0.642788
v 0.866025 -1.000000 -0.500000
v 0.866025 1.000000 -0.500000
v 0.939693 -1.000000 -0.342020
v 0.939693 1.000000 -0.342020
v 0.984808 -1.000000 -0.173648
v 0.984808 1.000000 -0.173648
v 1.000000 -1.000000 0.000000
v 1.000000 1.000000 0.000000
v 0.984808 -1.000000 0.173648
v 0.984808 1.000000 0.173648
v 0.939693 -1.000000 0.342020
v 0.939693 1.000000 0.342020
v 0.866025 -1.000000 0.500000
v 0.866025 1.000000 0.500000
v 0.766044 -1.000000 0.642788
v 0.766044 1.000000 0.642788
v 0.642788 -1.000000 0.766044
v 0.642788 1.000000 0.766044
v 0.500000 -1.000000 0.866025
v 0.500000 1.000000 0.866025
v 0.342020 -1.000000 0.939693
v 0.342020 1.000000 0.939693
v 0.173648 -1.000000 0.984808
v 0.173648 1.000000 0.984808
v 0.000000 -1.000000 1.000000
v 0.000000 1.000000 1.000000
v -0.173648 -1.000000 0.984808
v -0.173648 1.000000 0.984808
v -0.342020 -1.000000 0.939693
v -0.342020 1.000000 0.939693
v -0.500000 -1.000000 0.866025
v -0.500000 1.000000 0.866025
v -0.642788 -1.000000 0.766044
v -0.642788 1.000000 0.766044
v -0.766044 -1.000000 0.642788
v -0.766044 1.000000 0.642788
v -0.866025 -1.000000 0.500000
v -0.866025 1.000000 0.500000
v -0.939693 -1.000000 0.342020
v -0.939693 1.000000 0.342020
v -0.984808 -1.000000 0.173648
v -0.984808 1.000000 0.173648
v -1.000000 -1.000000 0.000000
v -1.000000 1.000000 0.000000
v -0.984808 -1.000000 -0.173648
v -0.984808 1.000000 -0.173648
v -0.939693 -1.000000 -0.342020
v -0.939693 1.000000 -0.342020
v -0.866025 -1.000000 -0.500000
v -0.866025 1.000000 -0.500000
v -0.766044 -1.000000 -0.642788
v -0.766044 1.000000 -0.642788
v -0.642788 -1.000000 -0.766044
v -0.642788 1.000000 -0.766044
v -0.500000 -1.000000 -0.866025
v -0.500000 1.000000 -0.866025
v -0.342020 -1.000000 -0.939693
v -0.342020 1.000000 -0.939693
v -0.173648 -1.000000 -0.984808
v -0.173648 1.000000 -0.984808
vn 0.0872 -0.0000 -0.9962
vn 0.2588 -0.0000 -0.9659
vn 0.4226 -0.0000 -0.9063
vn 0.5736 -0.0000 -0.8192
vn 0.7071 -0.0000 -0.7071
vn 0.8192 -0.0000 -0.5736
vn 0.9063 -0.0000 -0.4226
vn 0.9659 -0.0000 -0.2588
vn 0.9962 -0.0000 -0.0872
vn 0.9962 -0.0000 0.0872
vn 0.9659 -0.0000 0.2588
vn 0.9063 -0.0000 0.4226
vn 0.8192 -0.0000 0.5736
vn 0.7071 -0.0000 0.7071
vn 0.5736 -0.0000 0.8192
vn 0.4226 -0.0000 0.9063
vn 0.2588 -0.0000 0.9659
vn 0.0872 -0.0000 0.9962
vn -0.0872 -0.0000 0.9962
vn -0.2588 -0.0000 0.9659
vn -0.4226 -0.0000 0.9063
vn -0.5736 -0.0000 0.8192
vn -0.7071 -0.0000 0.7071
vn -0.8192 -0.0000 0.5736
vn -0.9063 -0.0000 0.4226
vn -0.9659 -0.0000 0.2588
vn -0.9962 -0.0000 0.0872
vn -0.9962 -0.0000 -0.0872
vn -0.9659 -0.0000 -0.2588
vn -0.9063 -0.0000 -0.4226
vn -0.8192 -0.0000 -0.5736
vn -0.7071 -0.0000 -0.7071
vn -0.5736 -0.0000 -0.8192
vn -0.4226 -0.0000 -0.9063
vn -0.0000 1.0000 -0.0000
vn -0.2588 -0.0000 -0.9659
vn -0.0872 -0.0000 -0.9962
vn -0.0000 -1.0000 -0.0000
vt 1.000000 0.500000
vt -0.000000 0.500000
vt 0.750000 0.490000
vt 1.000000 1.000000
vt 0.250000 0.490000
vt -0.000000 1.000000
vt 0.972222 0.500000
vt 0.791676 0.486354
vt 0.972222 1.000000
vt 0.291676 0.486354
vt 0.944444 0.500000
vt 0.832085 0.475526
vt 0.944444 1.000000
vt 0.332085 0.475526
vt 0.916667 0.500000
vt 0.870000 0.457846
vt 0.916667 1.000000
vt 0.370000 0.457846
vt 0.888889 0.500000
vt 0.904269 0.433851
vt 0.888889 1.000000
vt 0.404269 0.433851
vt 0.861111 0.500000
vt 0.933851 0.404269
vt 0.861111 1.000000
vt 0.433851 0.404269
vt 0.833333 0.500000
vt 0.957846 0.370000
vt 0.833333 1.000000
vt 0.457846 0.370000
vt 0.805555 0.500000
vt 0.975526 0.332085
vt 0.805555 1.000000
vt 0.475526 0.332085
vt 0.777778 0.500000
vt 0.986354 0.291676
vt 0.777778 1.000000
vt 0.486354 0.291676
vt 0.750000 0.500000
vt 0.990000 0.250000
vt 0.750000 1.000000
vt 0.490000 0.250000
vt 0.722222 0.500000
vt 0.986354 0.208324
vt 0.722222 1.000000
vt 0.486354 0.208324
vt 0.694444 0.500000
vt 0.975526 0.167915
vt 0.694444 1.000000
vt 0.475526 0.167915
vt 0.666667 0.500000
vt 0.957846 0.130000
vt 0.666667 1.000000
vt 0.457846 0.130000
vt 0.638889 0.500000
vt 0.933851 0.095731
vt 0.638889 1.000000
vt 0.433851 0.095731
vt 0.611111 0.500000
vt 0.904269 0.066149
vt 0.611111 1.000000
vt 0.404269 0.066149
vt 0.583333 0.500000
vt 0.870000 0.042154
vt 0.583333 1.000000
vt 0.370000 0.042154
vt 0.555555 0.500000
vt 0.832085 0.024474
vt 0.555555 1.000000
vt 0.332085 0.024474
vt 0.527778 0.500000
vt 0.791676 0.013646
vt 0.527778 1.000000
vt 0.291676 0.013646
vt 0.500000 0.500000
vt 0.750000 0.010000
vt 0.500000 1.000000
vt 0.250000 0.010000
vt 0.472222 0.500000
vt 0.708324 0.013646
vt 0.472222 1.000000
vt 0.208324 0.013646
vt 0.444444 0.500000
vt 0.667915 0.024474
vt 0.444444 1.000000
vt 0.167915 0.024474
vt 0.416666 0.500000
vt 0.630000 0.042154
vt 0.416666 1.000000
vt 0.130000 0.042154
vt 0.388889 0.500000
vt 0.595731 0.066149
vt 0.388889 1.000000
vt 0.095731 0.066149
vt 0.361111 0.500000
vt 0.566149 0.095731
vt 0.361111 1.000000
vt 0.066149 0.095731
vt 0.333333 0.500000
vt 0.542154 0.130000
vt 0.333333 1.000000
vt 0.042154 0.130000
vt 0.305555 0.500000
vt 0.524474 0.167915
vt 0.305555 1.000000
vt 0.024474 0.167915
vt 0.277777 0.500000
vt 0.513646 0.208324
vt 0.277777 1.000000
vt 0.013646 0.208324
vt 0.250000 0.500000
vt 0.510000 0.250000
vt 0.250000 1.000000
vt 0.010000 0.250000
vt 0.222222 0.500000
vt 0.513646 0.291676
vt 0.222222 1.000000
vt 0.013646 0.291676
vt 0.194444 0.500000
vt 0.524474 0.332085
vt 0.194444 1.000000
vt 0.024474 0.332085
vt 0.166666 0.500000
vt 0.542154 0.370000
vt 0.166666 1.000000
vt 0.042154 0.370000
vt 0.138889 0.500000
vt 0.566149 0.404269
vt 0.138889 1.000000
vt 0.066149 0.404269
vt 0.111111 0.500000
vt 0.595731 0.433851
vt 0.111111 1.000000
vt 0.095731 0.433851
vt 0.083333 0.500000
vt 0.630000 0.457846
vt 0.083333 1.000000
vt 0.130000 0.457846
vt 0.055555 0.500000
vt 0.667915 0.475526
vt 0.167915 0.475526
vt 0.055555 1.000000
vt 0.027777 0.500000
vt 0.708324 0.486354
vt 0.208324 0.486354
vt 0.027777 1.000000
s 0
f 2/4/1 3/7/1 1/1/1
f 4/9/2 5/11/2 3/7/2
f 6/13/3 7/15/3 5/11/3
f 8/17/4 9/19/4 7/15/4
f 10/21/5 11/23/5 9/19/5
f 12/25/6 13/27/6 11/23/6
f 14/29/7 15/31/7 13/27/7
f 16/33/8 17/35/8 15/31/8
f 18/37/9 19/39/9 17/35/9
f 20/41/10 21/43/10 19/39/10
f 22/45/11 23/47/11 21/43/11
f 24/49/12 25/51/12 23/47/12
f 26/53/13 27/55/13 25/51/13
f 28/57/14 29/59/14 27/55/14
f 30/61/15 31/63/15 29/59/15
f 32/65/16 33/67/16 31/63/16
f 34/69/17 35/71/17 33/67/17
f 36/73/18 37/75/18 35/71/18
f 38/77/19 39/79/19 37/75/19
f 40/81/20 41/83/20 39/79/20
f 42/85/21 43/87/21 41/83/21
f 44/89/22 45/91/22 43/87/22
f 46/93/23 47/95/23 45/91/23
f 48/97/24 49/99/24 47/95/24
f 50/101/25 51/103/25 49/99/25
f 52/105/26 53/107/26 51/103/26
f 54/109/27 55/111/27 53/107/27
f 56/113/28 57/115/28 55/111/28
f 58/117/29 59/119/29 57/115/29
f 60/121/30 61/123/30 59/119/30
f 62/125/31 63/127/31 61/123/31
f 64/129/32 65/131/32 63/127/32
f 66/133/33 67/135/33 65/131/33
f 68/137/34 69/139/34 67/135/34
f 62/126/35 30/62/35 14/30/35
f 70/142/36 71/143/36 69/139/36
f 72/146/37 1/2/37 71/143/37
f 15/32/38 47/96/38 63/128/38
f 2/4/1 4/9/1 3/7/1
f 4/9/2 6/13/2 5/11/2
f 6/13/3 8/17/3 7/15/3
f 8/17/4 10/21/4 9/19/4
f 10/21/5 12/25/5 11/23/5
f 12/25/6 14/29/6 13/27/6
f 14/29/7 16/33/7 15/31/7
f 16/33/8 18/37/8 17/35/8
f 18/37/9 20/41/9 19/39/9
f 20/41/10 22/45/10 21/43/10
f 22/45/11 24/49/11 23/47/11
f 24/49/12 26/53/12 25/51/12
f 26/53/13 28/57/13 27/55/13
f 28/57/14 30/61/14 29/59/14
f 30/61/15 32/65/15 31/63/15
f 32/65/16 34/69/16 33/67/16
f 34/69/17 36/73/17 35/71/17
f 36/73/18 38/77/18 37/75/18
f 38/77/19 40/81/19 39/79/19
f 40/81/20 42/85/20 41/83/20
f 42/85/21 44/89/21 43/87/21
f 44/89/22 46/93/22 45/91/22
f 46/93/23 48/97/23 47/95/23
f 48/97/24 50/101/24 49/99/24
f 50/101/25 52/105/25 51/103/25
f 52/105/26 54/109/26 53/107/26
f 54/109/27 56/113/27 55/111/27
f 56/113/28 58/117/28 57/115/28
f 58/117/29 60/121/29 59/119/29
f 60/121/30 62/125/30 61/123/30
f 62/125/31 64/129/31 63/127/31
f 64/129/32 66/133/32 65/131/32
f 66/133/33 68/137/33 67/135/33
f 68/137/34 70/142/34 69/139/34
f 6/14/35 4/10/35 2/5/35
f 2/5/35 72/145/35 70/141/35
f 70/141/35 68/138/35 66/134/35
f 66/134/35 64/130/35 62/126/35
f 62/126/35 60/122/35 58/118/35
f 58/118/35 56/114/35 54/110/35
f 54/110/35 52/106/35 50/102/35
f 50/102/35 48/98/35 46/94/35
f 46/94/35 44/90/35 42/86/35
f 42/86/35 40/82/35 38/78/35
f 38/78/35 36/74/35 34/70/35
f 34/70/35 32/66/35 30/62/35
f 30/62/35 28/58/35 26/54/35
f 26/54/35 24/50/35 22/46/35
f 22/46/35 20/42/35 18/38/35
f 18/38/35 16/34/35 14/30/35
f 14/30/35 12/26/35 10/22/35
f 10/22/35 8/18/35 6/14/35
f 6/14/35 2/5/35 70/141/35
f 70/141/35 66/134/35 62/126/35
f 62/126/35 58/118/35 54/110/35
f 54/110/35 50/102/35 46/94/35
f 46/94/35 42/86/35 38/78/35
f 38/78/35 34/70/35 30/62/35
f 30/62/35 26/54/35 22/46/35
f 22/46/35 18/38/35 14/30/35
f 14/30/35 10/22/35 6/14/35
f 6/14/35 70/141/35 62/126/35
f 62/126/35 54/110/35 46/94/35
f 46/94/35 38/78/35 30/62/35
f 30/62/35 22/46/35 14/30/35
f 14/30/35 6/14/35 62/126/35
f 62/126/35 46/94/35 30/62/35
f 70/142/36 72/146/36 71/143/36
f 72/146/37 2/6/37 1/2/37
f 71/144/38 1/3/38 3/8/38
f 3/8/38 5/12/38 7/16/38
f 7/16/38 9/20/38 11/24/38
f 11/24/38 13/28/38 15/32/38
f 15/32/38 17/36/38 19/40/38
f 19/40/38 21/44/38 23/48/38
f 23/48/38 25/52/38 27/56/38
f 27/56/38 29/60/38 31/64/38
f 31/64/38 33/68/38 35/72/38
f 35/72/38 37/76/38 39/80/38
f 39/80/38 41/84/38 43/88/38
f 43/88/38 45/92/38 47/96/38
f 47/96/38 49/100/38 51/104/38
f 51/104/38 53/108/38 55/112/38
f 55/112/38 57/116/38 59/120/38
f 59/120/38 61/124/38 63/128/38
f 63/128/38 65/132/38 67/136/38
f 67/136/38 69/140/38 71/144/38
f 71/144/38 3/8/38 7/16/38
f 7/16/38 11/24/38 15/32/38
f 15/32/38 19/40/38 23/48/38
f 23/48/38 27/56/38 31/64/38
f 31/64/38 35/72/38 39/80/38
f 39/80/38 43/88/38 47/96/38
f 47/96/38 51/104/38 55/112/38
f 55/112/38 59/120/38 63/128/38
f 63/128/38 67/136/38 71/144/38
f 71/144/38 7/16/38 15/32/38
f 15/32/38 23/48/38 31/64/38
f 31/64/38 39/80/38 47/96/38
f 47/96/38 55/112/38 63/128/38
f 63/128/38 71/144/38 15/32/38
f 15/32/38 31/64/38 47/96/38
